<svg width="116" height="114" viewBox="0 0 116 114" fill="none" xmlns="http://www.w3.org/2000/svg">
<path d="M53.0856 111.588C51.4153 111.408 50.8287 111.139 50.6932 110.605L48.2407 110.739C48.6001 112.105 49.9594 112.819 52.9301 113.14C56.0082 113.472 57.7542 112.84 57.9061 111.432C58.04 110.191 57.0278 109.394 54.4372 109.018L51.9778 108.656C51.0869 108.524 50.8492 108.377 50.8814 108.079C50.92 107.721 51.6288 107.641 53.6212 107.856C55.0767 108.013 55.7907 108.331 55.9198 108.925L58.4558 108.8C58.0589 107.333 56.7619 106.602 53.7673 106.278C50.2835 105.902 48.5257 106.533 48.357 108.096C48.2282 109.289 49.1686 109.97 51.6492 110.359L54.0979 110.707L54.4481 110.764C55.2471 110.905 55.4865 111.038 55.4581 111.301C55.4182 111.671 54.744 111.767 53.0856 111.588ZM47.1816 105.473L44.7928 104.633L43.9614 107C43.488 108.347 42.1753 108.789 40.4431 108.18C39.2204 107.75 38.7887 106.988 39.1467 105.969L40.1849 103.014L37.7961 102.175L36.5908 105.605C35.9185 107.519 36.7453 108.967 39.0209 109.766C40.4927 110.283 41.9516 110.185 43.0544 109.581L41.8093 113.124L44.1982 113.964L47.1816 105.473ZM31.9803 98.4709C29.0455 96.5565 26.7621 96.5427 25.5492 98.4021C24.3494 100.241 25.2892 102.359 28.2039 104.26C31.1086 106.155 33.4453 106.175 34.6451 104.335C35.8449 102.496 34.885 100.366 31.9803 98.4709ZM30.9706 100.019C32.629 101.1 33.0839 101.985 32.4741 102.919C31.8644 103.854 30.872 103.794 29.2136 102.712C27.5552 101.63 27.1104 100.753 27.7202 99.8182C28.3299 98.8835 29.3123 98.9369 30.9706 100.019ZM24.6914 92.7947L23.2304 91.1232L18.5123 92.235L20.2531 87.717L18.8 86.0546L11.6589 87.9135L13.3806 89.8832L17.6156 88.6199L16.0104 92.8918L17.5346 94.6356L21.9491 93.4864L20.1566 97.6352L21.9651 99.7042L24.6914 92.7947ZM16.1564 82.6418L14.9876 80.3957L12.9544 81.4537C11.7196 82.0963 10.4806 81.483 9.59431 79.7798C9.38382 79.3752 9.22144 78.9592 9.14596 78.6062L7.02077 79.6174C7.06041 79.7456 7.14991 79.9696 7.22192 80.1079C7.97527 81.5557 9.23014 82.4854 10.5866 82.7264L9.23261 83.6339L10.3017 85.6884L16.1564 82.6418ZM11.377 70.5529C10.4987 67.4966 9.49796 66.2734 8.0274 66.1091L8.3033 68.6768C8.81276 68.7552 9.25063 69.4534 9.70469 71.0334C10.1753 72.6712 10.0812 73.6471 9.40777 74.1278L7.18389 66.389C6.9515 66.4058 6.76365 66.4473 6.47532 66.5302C4.48007 67.1036 3.85226 69.394 4.75706 72.5426C5.68838 75.7835 7.52205 77.3416 9.56343 76.755C11.6625 76.1518 12.3282 73.8629 11.377 70.5529ZM6.35687 72.0704C5.9227 70.5596 5.97412 69.6957 6.60633 69.2019L8.11764 74.4611C7.34279 74.3716 6.80761 73.6389 6.35687 72.0704ZM9.53974 59.1411C9.39508 55.9644 8.70567 54.5423 7.31343 54.0411L6.98562 56.6026C7.46296 56.7971 7.72675 57.5779 7.80154 59.2202C7.87905 60.9225 7.56091 61.8499 6.79428 62.1611L6.42799 54.1174C6.19804 54.0799 6.0057 54.0766 5.70601 54.0903C3.63216 54.1847 2.48969 56.2668 2.63871 59.5394C2.79211 62.9079 4.21389 64.8493 6.33569 64.7526C8.51743 64.6533 9.6964 62.5815 9.53974 59.1411ZM4.30444 59.4516C4.23293 57.8812 4.48351 57.0529 5.2131 56.7194L5.46202 62.1857C4.72911 61.9188 4.37868 61.0819 4.30444 59.4516ZM9.54145 49.883L0.602134 48.8396L0.308594 51.3546L9.24791 52.398L9.54145 49.883ZM8.89392 34.5372L9.08429 34.1277C9.66739 32.9193 10.0725 32.5341 10.5696 32.5672L11.2028 30.1941C9.79225 30.1122 8.69208 31.1831 7.46631 33.9081C6.19623 36.7316 6.25614 38.5876 7.54751 39.1685C8.68566 39.6804 9.75743 38.9651 10.9181 36.6188L12.0247 34.3928C12.4268 33.5868 12.6396 33.4062 12.9132 33.5293C13.2415 33.6769 13.0982 34.3757 12.2761 36.2033C11.6755 37.5384 11.1514 38.1185 10.5474 38.0573L9.87967 40.507C11.3975 40.5845 12.4949 39.5781 13.7305 36.8312C15.168 33.6356 15.113 31.7687 13.6794 31.1239C12.585 30.6316 11.6462 31.3146 10.5079 33.5526L9.41718 35.7726L9.25436 36.0877C8.87282 36.8038 8.67278 36.9904 8.43137 36.8818C8.09212 36.7292 8.20966 36.0583 8.89392 34.5372ZM16.5263 30.8296L18.0624 28.8167L16.0686 27.2952C14.9334 26.4289 14.9186 25.0439 16.0324 23.5844C16.8186 22.5541 17.6769 22.3789 18.5355 23.0341L21.0253 24.9341L22.5613 22.9213L19.6709 20.7155C18.0587 19.4852 16.4262 19.8244 14.9629 21.7418C14.0165 22.9819 13.6591 24.3998 13.8936 25.6354L10.9077 23.3568L9.37164 25.3696L16.5263 30.8296ZM27.8659 18.5241C30.5874 16.3171 31.3002 14.1477 29.9019 12.4234C28.5187 10.7178 26.2152 10.9636 23.5123 13.1555C20.8186 15.3399 20.0837 17.5581 21.4669 19.2637C22.8501 20.9694 25.1722 20.7085 27.8659 18.5241ZM26.7019 17.0887C25.164 18.3359 24.183 18.4979 23.4801 17.6311C22.7772 16.7643 23.1384 15.838 24.6762 14.5909C26.2141 13.3437 27.1858 13.1892 27.8887 14.056C28.5916 14.9228 28.2398 15.8416 26.7019 17.0887ZM35.5226 13.3223L37.5629 12.4474L37.9588 7.61625L41.7207 10.6643L43.75 9.79408L44.1816 2.42769L41.7773 3.45874L41.6744 7.87696L38.1048 5.03368L35.9763 5.94649L35.7094 10.5003L32.3147 7.51671L29.7892 8.59978L35.5226 13.3223ZM47.7946 8.33988L50.2923 7.92501L49.9168 5.66399C49.6887 4.2908 50.6559 3.30297 52.55 2.98838C52.9998 2.91367 53.4457 2.88827 53.8047 2.92595L53.5022 0.591976C53.3681 0.589929 53.1274 0.605577 52.9735 0.631137C51.3635 0.89854 50.0906 1.80334 49.4409 3.01822L48.9979 1.4496L46.7132 1.82908L47.7946 8.33988ZM60.7839 7.52239C63.9622 7.62557 65.4337 7.04901 66.0418 5.70003L63.5135 5.17372C63.2825 5.63446 62.4835 5.83665 60.8404 5.78331C59.1372 5.72802 58.2374 5.33862 57.9869 4.55007L66.0346 4.81133C66.09 4.58501 66.1082 4.3935 66.118 4.09365C66.1853 2.01875 64.1985 0.717597 60.9242 0.611303C57.554 0.501894 55.5078 1.76817 55.4389 3.89105C55.368 6.0739 57.3417 7.41064 60.7839 7.52239ZM60.8821 2.27881C62.4533 2.32982 63.2595 2.64414 63.5352 3.39749L58.0661 3.21994C58.3893 2.51005 59.2509 2.22586 60.8821 2.27881ZM72.2025 9.28053C75.2701 10.1184 76.8352 9.89896 77.7397 8.72789L75.4026 7.62931C75.0709 8.02387 74.2468 8.03515 72.6609 7.602C71.0171 7.15305 70.2322 6.56549 70.1715 5.74033L77.939 7.86178C78.0453 7.65448 78.1075 7.47243 78.1865 7.18303C78.7335 5.18037 77.1028 3.45373 73.9426 2.59061C70.6897 1.70219 68.4056 2.45914 67.846 4.5081C67.2705 6.61493 68.8802 8.37314 72.2025 9.28053ZM73.5147 4.20284C75.0311 4.61701 75.7424 5.10982 75.8358 5.90658L70.5571 4.46488C71.0362 3.84936 71.9403 3.77286 73.5147 4.20284ZM81.0219 12.1414L84.7859 3.96632L82.486 2.90738L78.722 11.0825L81.0219 12.1414ZM95.7923 16.2498L96.1233 16.5569C97.0937 17.4836 97.3355 17.9876 97.1511 18.4503L99.2142 19.783C99.7262 18.4661 99.0457 17.0898 96.83 15.085C94.5343 13.0078 92.75 12.4938 91.7999 13.5437C90.9626 14.4692 91.3134 15.709 93.1888 17.5354L94.9663 19.2731C95.6095 19.9037 95.7159 20.1617 95.5146 20.3842C95.2731 20.6511 94.6523 20.2998 93.1663 18.9553C92.0807 17.973 91.6901 17.2959 91.9341 16.74L89.8087 15.3509C89.268 16.7713 89.8879 18.1251 92.1213 20.146C94.7196 22.4969 96.5128 23.019 97.5676 21.8533C98.3727 20.9635 98.0117 19.8601 96.2325 18.0884L94.4558 16.3676L94.206 16.1157C93.6421 15.5323 93.5261 15.2846 93.7037 15.0883C93.9533 14.8125 94.5554 15.1307 95.7923 16.2498ZM96.9783 24.6584L98.4232 26.7376L100.483 25.3065C101.655 24.4916 102.978 24.9021 104.026 26.4099C104.765 27.4741 104.669 28.3448 103.782 28.9611L101.21 30.7484L102.655 32.8276L105.641 30.7528C107.306 29.5955 107.484 27.9377 106.108 25.9569C105.217 24.6759 103.978 23.9009 102.73 23.7452L105.814 21.6019L104.369 19.5226L96.9783 24.6584ZM105.209 39.244C106.468 42.514 108.311 43.8617 110.383 43.064C112.432 42.2749 112.909 40.008 111.659 36.7604C110.413 33.524 108.53 32.1402 106.481 32.9292C104.431 33.7183 103.962 36.0076 105.209 39.244ZM106.933 38.58C106.222 36.7322 106.37 35.7491 107.412 35.3481C108.453 34.9471 109.223 35.5767 109.934 37.4244C110.646 39.2722 110.493 40.2441 109.451 40.6451C108.41 41.0461 107.645 40.4278 106.933 38.58ZM107.784 48.1095L107.985 50.3204L112.456 52.1917L108.394 54.8259L108.594 57.0248L115.465 59.7145L115.228 57.1092L111.059 55.6443L114.867 53.1296L114.658 50.8231L110.41 49.1604L114.297 46.8554L114.049 44.1186L107.784 48.1095ZM108.738 61.3393L108.369 63.8443L110.636 64.178C112.014 64.3807 112.658 65.6036 112.379 67.5032C112.313 67.9543 112.2 68.3866 112.055 68.7169L114.369 69.1424C114.412 69.0153 114.471 68.7814 114.494 68.6271C114.731 67.0124 114.259 65.5238 113.301 64.5338L114.93 64.5916L115.267 62.3002L108.738 61.3393ZM105.527 73.9356C104.447 76.9267 104.541 78.5043 105.636 79.4993L106.918 77.2571C106.551 76.895 106.605 76.0726 107.163 74.5263C107.742 72.9235 108.39 72.1878 109.217 72.193L106.484 79.7668C106.682 79.8894 106.859 79.9659 107.141 80.0677C109.094 80.7725 110.945 79.2845 112.057 76.2031C113.202 73.0313 112.629 70.6941 110.631 69.9731C108.577 69.2317 106.696 70.6961 105.527 73.9356ZM110.484 75.6481C109.95 77.1267 109.402 77.7965 108.601 77.8261L110.458 72.6791C111.034 73.2057 111.038 74.113 110.484 75.6481ZM100.333 84.2501C98.588 86.9083 98.3127 88.4645 99.1467 89.6868L100.914 87.804C100.641 87.3666 100.886 86.5794 101.788 85.2051C102.723 83.7807 103.525 83.216 104.328 83.4134L99.9087 90.1441C100.073 90.3094 100.227 90.4248 100.478 90.5895C102.213 91.7289 104.359 90.7121 106.157 87.9736C108.008 85.155 107.995 82.7487 106.219 81.5829C104.394 80.3842 102.224 81.3712 100.333 84.2501ZM104.756 87.0682C103.894 88.3822 103.205 88.9063 102.418 88.7487L105.422 84.1746C105.859 84.8205 105.652 85.704 104.756 87.0682ZM94.8833 91.7641L96.5988 89.9018L103.218 95.9997L101.503 97.8619L94.8833 91.7641Z" fill="white"/>
<circle cx="59" cy="57" r="4" fill="black"/>
</svg>
